<?xml version="1.0" encoding="utf-8"?>
<!-- Generated by IcoMoon.io -->
<!DOCTYPE svg PUBLIC "-//W3C//DTD SVG 1.1//EN" "http://www.w3.org/Graphics/SVG/1.1/DTD/svg11.dtd">
<svg version="1.1" xmlns="http://www.w3.org/2000/svg" xmlns:xlink="http://www.w3.org/1999/xlink" width="512" height="512" viewBox="0 0 512 512">
<g>
</g>
	<path d="M367.334 336.691l-70.605-80.691 70.605-80.691c12.007-12.006 12.007-31.463 0-43.443-12.007-11.981-31.462-11.981-43.443 0l-67.891 77.594-67.865-77.568c-12.006-12.007-31.463-12.007-43.443 0-11.981 12.006-11.981 31.463 0 43.443l70.579 80.666-70.605 80.691c-11.981 12.007-11.981 31.411 0 43.392 12.006 12.007 31.463 12.007 43.443 0l67.891-77.543 67.865 77.543c12.007 12.007 31.462 12.007 43.443 0s12.007-31.385 0.026-43.392z" fill="#000000" />
</svg>
