<?xml version="1.0" encoding="utf-8"?>
<!-- Generator: Adobe Illustrator 18.0.0, SVG Export Plug-In . SVG Version: 6.00 Build 0)  -->
<!DOCTYPE svg PUBLIC "-//W3C//DTD SVG 1.1//EN" "http://www.w3.org/Graphics/SVG/1.1/DTD/svg11.dtd">
<svg version="1.1" xmlns="http://www.w3.org/2000/svg" xmlns:xlink="http://www.w3.org/1999/xlink" width="100" height="58" x="0px" y="0px"
	 viewBox="0 0 280 150" xml:space="preserve">
<g id="">
	<path fill="#000" d="M2.6,35.5c0,0,24.7-15.8,62.3-14.3c31.6,1.3,48.9,6.8,60.9,17c11.8,10.1,13.5,24,4.1,36
		c-4.9,6.2-15.9,17.1-32.6,22.1S75,91.4,80.6,85.5c3.5-3.8,8-5.1,11-5.5c1.1-0.2,1.7,1.1,0.9,1.9l-6.8,4.1c-4.1,3.5-1.7,6.1,2,6.8
		c3.3,0.6,8.6,0.9,16-2.5c12.2-5.5,21.9-13,24.5-21.5c3.5-11.8-1.4-21.4-10.1-28c-8.6-6.7-25.4-15-57.3-14.5c-30,0.5-36.5,5-51.2,10
		S2.6,35.5,2.6,35.5z"/>
	<path fill="#000" d="M71.9,51.5c-1.3,0.4-2.3,1.6-2.6,2.9c-0.4,1.6-0.9,4.4-1,7.8c-0.2,5.8,0,23,0,23s0.5,4.6,3.3,2.3
		c3-2.5,2.9-5.7,2.9-9.2s0.1-20.1-0.1-24.6C74.1,51.4,73,51.2,71.9,51.5z"/>
	<path fill="#000" d="M142.6,74.6c0,0,1.6-1.1,3.8-1.1s3.3,0.5,4.4,1.1s1.1,2,3.6,2s2.3,0,3.6-0.8s1.1-1.1,3-1.4s4.3-0.4,5.1,0.6
		c0.3,0.3,0.4,2.3,0.5,5.9c0,2.7,8.8-2.7,10.3,0.2c0.4,0.7-1.7,0.6-4.4,2c-3.1,1.7-5.3,2.5-5.5,5.9c-0.4,5.5-0.7,12.6-0.9,14.9
		c-0.4,5.3-0.3,13.8-4.1,23.9s-7.4,18.4-16.2,23.1c-6.9,3.7-10.8,0.6-12.6-0.7s-5.7-4.6-4.5-17.5s10.3-23.9,13-27.3
		s9.7-10.7,13.3-13.6c3.4-2.8,5.1-4.4,5.1-4.4s-0.3-6.6-0.1-7.9s-0.6-2-2.4-1.4s-4.3,3.9-5.4,4.4s-4.4,1.3-4.7,0
		c-0.2-1.3-0.3-2.9-1-4.5s-2.8-2.9-3.5-2.5S142.6,74.6,142.6,74.6z M160.1,92.2c0,0-7.9,5.4-14.5,14.5c-6.5,8.9-9.6,14.4-11,23.5
		s0,19,4.5,19.3s11.1-3.8,15.3-14.6s5-16.2,5.8-23.1S161.5,91.4,160.1,92.2z"/>
	<path fill="#000" d="M220,71.9c-1.3,0.5-2.6,3.3-3.5,5.3s-1.4,3-3.4,3s-2.8-1.3-3.3-3s0.9-4.9,2.4-6.8s4.4-2.3,4.4-2.3
		C222.6,67.3,221.2,71.4,220,71.9z M183.1,66.6c0,0,11.5-10.3,17.1-24.8s7.2-25.2,6.6-31.6c-1-10.3-6.2-14.1-15.3-5.6
		c-9,8.4-14.8,20.3-16.8,39s3,33.8,9.5,37.5s12.5,3.8,16.8,3.3s3.9-1.4,3.9-1.4s2.5,0.1,6.6,0.1s9-1.8,9-1.8s4.1,2.1,7.6,2.6
		s6.1,0.1,9.4-1.8s3.6-5.6,3.6-6.1s-1.4-4.1,0-2.8s1.5,2,1.5,4.8s0.5,3.9,3.4,3.9s2.9,0.3,4.6-0.3s2.3-2,3.5-2.6s4-0.6,6.3,0.8
		s3.9,2,9.3,2s11.1-2,11.9-2.9s0.8-2.1-2.5-1.4s-4.6,2.1-8.5,1.6s-4.6-0.5-5.1-2.6s0-5.3-3.3-5s-6.9,4.4-8.6,5s-3.6,0.9-3.6-0.3
		s0.4-5-0.6-5.5s-9.9-0.5-11.3-0.1s0.8,2.6,0.8,2.6s2.4,1.6,1,3.8s-2.6,3.3-5.3,3.6s-5.5,0.3-6.4-2.3s0.4-7.8,0-8.9
		s-0.2-3.8-5.1-4.1s-9.9,0.6-13.4,2s-6.5,5.1-7,7s-0.1,4.5,0.3,6s1.1,1.3,1.1,1.3s-6.6,1-9.6,0.3s-4.8-1.3-7.8-5.3
		S183.1,70.3,183.1,66.6z M202.1,16.5c-1,9.1-2.2,15-6.3,24.3c-4.3,9.6-8.8,15.7-11.8,19.5s-3.2,1.2-3.5-4.2
		c-0.3-5.3-0.3-18.7,6.2-35.1s11.2-17.7,11.2-17.7C201.1,1.7,203,8.4,202.1,16.5z"/>
</g>
</svg>
