<?xml version="1.0" encoding="utf-8"?>
<!-- Generator: Adobe Illustrator 18.0.0, SVG Export Plug-In . SVG Version: 6.00 Build 0)  -->
<!DOCTYPE svg PUBLIC "-//W3C//DTD SVG 1.1//EN" "http://www.w3.org/Graphics/SVG/1.1/DTD/svg11.dtd">
<svg version="1.1" id="图层_1" xmlns="http://www.w3.org/2000/svg" xmlns:xlink="http://www.w3.org/1999/xlink" x="0px" y="0px"
	 viewBox="0 0 300 300" enable-background="new 0 0 300 300" xml:space="preserve">
<path d="M134.6,19.1C99.1,27,74.3,56.2,71.4,93.2c-0.3,4.6-1,8.3-1.5,8.3c-1.5,0-4.8,6.4-4.8,9.3c0,1.5-0.7,3.9-1.6,5.2
	c-1.2,1.9-1.5,4.2-1.2,9.7l0.4,7.3l-6.3,8.3C41,161.5,35,183,39.6,201c2.1,7.9,3.4,9.2,7.5,7.5c3.2-1.3,11.5-9.9,13.3-13.8
	c1.1-2.4,2.7-3,2.7-1c0,2.4,6.1,14.2,10.6,20.6c2.5,3.5,4.4,6.5,4.2,6.6c-0.1,0.2-2.1,1.3-4.3,2.4c-8.2,4.2-11.8,10.3-11.9,20.7
	c-0.1,3.6,0.5,5.9,1.9,7.9c1.1,1.6,2.5,3.7,3.1,4.7c3.5,6,9.9,9,23.3,11c10,1.4,16.9,0.8,36.6-3.1c19.9-3.9,28.2-3.9,48.9,0.2
	c29.3,5.8,47.1,3.9,56.5-6c7-7.6,9.1-13.8,6.7-19.7c-0.8-1.8-1.2-3.6-0.9-3.8c0.2-0.3-0.3-1.9-1.1-3.6c-1.9-3.5-6.7-7.4-11.9-9.6
	l-3.6-1.5l5.3-7.8c2.9-4.3,6.5-11,8.1-15l2.8-7.2l3.7,5.7c3.9,6,9.3,11.6,12.2,12.6c4.2,1.5,7.7-7.2,8.5-20.8
	c0.4-7.2,0.1-10.8-1.6-17.5c-2.4-9.9-10.2-26-16.4-34.3c-4.3-5.7-4.4-5.7-3.4-11c1.2-6.8-0.4-14.9-4.3-21.1c-2.4-3.7-3.2-6.5-4-13.4
	c-3.7-32.6-26.6-60-58.5-70.2C164.3,17.5,144.8,16.8,134.6,19.1L134.6,19.1z"/>
</svg>
